<svg xmlns="http://www.w3.org/2000/svg" class="icon icon-cart" width="40" height="40" viewBox="0 0 40 40" fill="none">
  <path d="M13.3334 14.6667H29.3334L27.3334 23.3333H15.3334M27.3334 26H16.0001L12.6667 12H10.6667" stroke="currentColor" stroke-linecap="round" stroke-linejoin="round"/>
  <path d="M26.0001 30.0007C26.7365 30.0007 27.3334 29.4037 27.3334 28.6673C27.3334 27.9309 26.7365 27.334 26.0001 27.334C25.2637 27.334 24.6667 27.9309 24.6667 28.6673C24.6667 29.4037 25.2637 30.0007 26.0001 30.0007Z" stroke="currentColor" stroke-linecap="round" stroke-linejoin="round"/>
  <path d="M17.3333 30.0007C18.0697 30.0007 18.6667 29.4037 18.6667 28.6673C18.6667 27.9309 18.0697 27.334 17.3333 27.334C16.597 27.334 16 27.9309 16 28.6673C16 29.4037 16.597 30.0007 17.3333 30.0007Z" stroke="currentColor" stroke-linecap="round" stroke-linejoin="round"/>
</svg>
